STARTFONT 2.1
FONT -tiny5-Medium-R-Medium--9-9-75-75-c-80-iso10646-1
SIZE 9 75 75
FONTBOUNDINGBOX 11 8 -1 -1
STARTPROPERTIES 10
FAMILY_NAME "tiny5"
WEIGHT_NAME "Medium"
FONT_VERSION "1.001"
COPYRIGHT "Copyright 2024 The tiny5 Project Authors (https://github.com/Gissio/font_tiny5)"
FOUNDRY "Made with Bits'n'Picas by Kreative Software"
FONT_ASCENT 7
FONT_DESCENT 2
POINT_SIZE 8
X_HEIGHT 4
CAP_HEIGHT 5
ENDPROPERTIES
CHARS 488
STARTCHAR U+0020
ENCODING 32
SWIDTH 181 0
DWIDTH 2 0
BBX 0 0 0 0
BITMAP
ENDCHAR
STARTCHAR U+0021
ENCODING 33
SWIDTH 181 0
DWIDTH 2 0
BBX 1 5 0 0
BITMAP
80
80
80
00
80
ENDCHAR
STARTCHAR U+0022
ENCODING 34
SWIDTH 363 0
DWIDTH 4 0
BBX 3 2 0 3
BITMAP
A0
A0
ENDCHAR
STARTCHAR U+0023
ENCODING 35
SWIDTH 545 0
DWIDTH 6 0
BBX 5 5 0 0
BITMAP
50
F8
50
F8
50
ENDCHAR
STARTCHAR U+0024
ENCODING 36
SWIDTH 363 0
DWIDTH 4 0
BBX 3 6 0 -1
BITMAP
40
60
C0
20
C0
40
ENDCHAR
STARTCHAR U+0025
ENCODING 37
SWIDTH 454 0
DWIDTH 5 0
BBX 4 4 0 1
BITMAP
90
20
40
90
ENDCHAR
STARTCHAR U+0026
ENCODING 38
SWIDTH 454 0
DWIDTH 5 0
BBX 4 5 0 0
BITMAP
40
A0
40
A0
50
ENDCHAR
STARTCHAR U+0027
ENCODING 39
SWIDTH 181 0
DWIDTH 2 0
BBX 1 2 0 3
BITMAP
80
80
ENDCHAR
STARTCHAR U+0028
ENCODING 40
SWIDTH 272 0
DWIDTH 3 0
BBX 2 5 0 0
BITMAP
40
80
80
80
40
ENDCHAR
STARTCHAR U+0029
ENCODING 41
SWIDTH 272 0
DWIDTH 3 0
BBX 2 5 0 0
BITMAP
80
40
40
40
80
ENDCHAR
STARTCHAR U+002A
ENCODING 42
SWIDTH 363 0
DWIDTH 4 0
BBX 3 4 0 1
BITMAP
40
E0
40
A0
ENDCHAR
STARTCHAR U+002B
ENCODING 43
SWIDTH 363 0
DWIDTH 4 0
BBX 3 3 0 1
BITMAP
40
E0
40
ENDCHAR
STARTCHAR U+002C
ENCODING 44
SWIDTH 272 0
DWIDTH 3 0
BBX 2 2 0 -1
BITMAP
40
80
ENDCHAR
STARTCHAR U+002D
ENCODING 45
SWIDTH 363 0
DWIDTH 4 0
BBX 3 1 0 2
BITMAP
E0
ENDCHAR
STARTCHAR U+002E
ENCODING 46
SWIDTH 181 0
DWIDTH 2 0
BBX 1 1 0 0
BITMAP
80
ENDCHAR
STARTCHAR U+002F
ENCODING 47
SWIDTH 272 0
DWIDTH 3 0
BBX 2 5 0 0
BITMAP
40
40
80
80
80
ENDCHAR
STARTCHAR U+0030
ENCODING 48
SWIDTH 363 0
DWIDTH 4 0
BBX 3 5 0 0
BITMAP
40
A0
A0
A0
40
ENDCHAR
STARTCHAR U+0031
ENCODING 49
SWIDTH 363 0
DWIDTH 4 0
BBX 2 5 0 0
BITMAP
40
C0
40
40
40
ENDCHAR
STARTCHAR U+0032
ENCODING 50
SWIDTH 363 0
DWIDTH 4 0
BBX 3 5 0 0
BITMAP
C0
20
40
80
E0
ENDCHAR
STARTCHAR U+0033
ENCODING 51
SWIDTH 363 0
DWIDTH 4 0
BBX 3 5 0 0
BITMAP
C0
20
40
20
C0
ENDCHAR
STARTCHAR U+0034
ENCODING 52
SWIDTH 363 0
DWIDTH 4 0
BBX 3 5 0 0
BITMAP
20
60
A0
E0
20
ENDCHAR
STARTCHAR U+0035
ENCODING 53
SWIDTH 363 0
DWIDTH 4 0
BBX 3 5 0 0
BITMAP
E0
80
C0
20
C0
ENDCHAR
STARTCHAR U+0036
ENCODING 54
SWIDTH 363 0
DWIDTH 4 0
BBX 3 5 0 0
BITMAP
60
80
C0
A0
40
ENDCHAR
STARTCHAR U+0037
ENCODING 55
SWIDTH 363 0
DWIDTH 4 0
BBX 3 5 0 0
BITMAP
E0
20
40
40
40
ENDCHAR
STARTCHAR U+0038
ENCODING 56
SWIDTH 363 0
DWIDTH 4 0
BBX 3 5 0 0
BITMAP
40
A0
40
A0
40
ENDCHAR
STARTCHAR U+0039
ENCODING 57
SWIDTH 363 0
DWIDTH 4 0
BBX 3 5 0 0
BITMAP
40
A0
60
20
C0
ENDCHAR
STARTCHAR U+003A
ENCODING 58
SWIDTH 181 0
DWIDTH 2 0
BBX 1 4 0 0
BITMAP
80
00
00
80
ENDCHAR
STARTCHAR U+003B
ENCODING 59
SWIDTH 272 0
DWIDTH 3 0
BBX 2 5 0 -1
BITMAP
40
00
00
40
80
ENDCHAR
STARTCHAR U+003C
ENCODING 60
SWIDTH 363 0
DWIDTH 4 0
BBX 3 5 0 0
BITMAP
20
40
80
40
20
ENDCHAR
STARTCHAR U+003D
ENCODING 61
SWIDTH 363 0
DWIDTH 4 0
BBX 3 3 0 1
BITMAP
E0
00
E0
ENDCHAR
STARTCHAR U+003E
ENCODING 62
SWIDTH 363 0
DWIDTH 4 0
BBX 3 5 0 0
BITMAP
80
40
20
40
80
ENDCHAR
STARTCHAR U+003F
ENCODING 63
SWIDTH 363 0
DWIDTH 4 0
BBX 3 5 0 0
BITMAP
C0
20
40
00
40
ENDCHAR
STARTCHAR U+0040
ENCODING 64
SWIDTH 454 0
DWIDTH 5 0
BBX 4 5 0 0
BITMAP
60
90
B0
80
60
ENDCHAR
STARTCHAR U+0041
ENCODING 65
SWIDTH 454 0
DWIDTH 5 0
BBX 4 5 0 0
BITMAP
60
90
F0
90
90
ENDCHAR
STARTCHAR U+0042
ENCODING 66
SWIDTH 454 0
DWIDTH 5 0
BBX 4 5 0 0
BITMAP
E0
90
E0
90
E0
ENDCHAR
STARTCHAR U+0043
ENCODING 67
SWIDTH 454 0
DWIDTH 5 0
BBX 4 5 0 0
BITMAP
60
90
80
90
60
ENDCHAR
STARTCHAR U+0044
ENCODING 68
SWIDTH 454 0
DWIDTH 5 0
BBX 4 5 0 0
BITMAP
E0
90
90
90
E0
ENDCHAR
STARTCHAR U+0045
ENCODING 69
SWIDTH 454 0
DWIDTH 5 0
BBX 4 5 0 0
BITMAP
F0
80
E0
80
F0
ENDCHAR
STARTCHAR U+0046
ENCODING 70
SWIDTH 454 0
DWIDTH 5 0
BBX 4 5 0 0
BITMAP
F0
80
E0
80
80
ENDCHAR
STARTCHAR U+0047
ENCODING 71
SWIDTH 454 0
DWIDTH 5 0
BBX 4 5 0 0
BITMAP
70
80
B0
90
70
ENDCHAR
STARTCHAR U+0048
ENCODING 72
SWIDTH 454 0
DWIDTH 5 0
BBX 4 5 0 0
BITMAP
90
90
F0
90
90
ENDCHAR
STARTCHAR U+0049
ENCODING 73
SWIDTH 181 0
DWIDTH 2 0
BBX 1 5 0 0
BITMAP
80
80
80
80
80
ENDCHAR
STARTCHAR U+004A
ENCODING 74
SWIDTH 363 0
DWIDTH 4 0
BBX 3 5 0 0
BITMAP
20
20
20
A0
40
ENDCHAR
STARTCHAR U+004B
ENCODING 75
SWIDTH 454 0
DWIDTH 5 0
BBX 4 5 0 0
BITMAP
90
A0
C0
A0
90
ENDCHAR
STARTCHAR U+004C
ENCODING 76
SWIDTH 363 0
DWIDTH 4 0
BBX 3 5 0 0
BITMAP
80
80
80
80
E0
ENDCHAR
STARTCHAR U+004D
ENCODING 77
SWIDTH 545 0
DWIDTH 6 0
BBX 5 5 0 0
BITMAP
88
D8
A8
88
88
ENDCHAR
STARTCHAR U+004E
ENCODING 78
SWIDTH 454 0
DWIDTH 5 0
BBX 4 5 0 0
BITMAP
90
D0
B0
90
90
ENDCHAR
STARTCHAR U+004F
ENCODING 79
SWIDTH 454 0
DWIDTH 5 0
BBX 4 5 0 0
BITMAP
60
90
90
90
60
ENDCHAR
STARTCHAR U+0050
ENCODING 80
SWIDTH 454 0
DWIDTH 5 0
BBX 4 5 0 0
BITMAP
E0
90
E0
80
80
ENDCHAR
STARTCHAR U+0051
ENCODING 81
SWIDTH 454 0
DWIDTH 5 0
BBX 4 5 0 0
BITMAP
60
90
90
A0
50
ENDCHAR
STARTCHAR U+0052
ENCODING 82
SWIDTH 454 0
DWIDTH 5 0
BBX 4 5 0 0
BITMAP
E0
90
E0
90
90
ENDCHAR
STARTCHAR U+0053
ENCODING 83
SWIDTH 454 0
DWIDTH 5 0
BBX 4 5 0 0
BITMAP
70
80
60
10
E0
ENDCHAR
STARTCHAR U+0054
ENCODING 84
SWIDTH 363 0
DWIDTH 4 0
BBX 3 5 0 0
BITMAP
E0
40
40
40
40
ENDCHAR
STARTCHAR U+0055
ENCODING 85
SWIDTH 454 0
DWIDTH 5 0
BBX 4 5 0 0
BITMAP
90
90
90
90
60
ENDCHAR
STARTCHAR U+0056
ENCODING 86
SWIDTH 363 0
DWIDTH 4 0
BBX 3 5 0 0
BITMAP
A0
A0
A0
40
40
ENDCHAR
STARTCHAR U+0057
ENCODING 87
SWIDTH 545 0
DWIDTH 6 0
BBX 5 5 0 0
BITMAP
A8
A8
A8
50
50
ENDCHAR
STARTCHAR U+0058
ENCODING 88
SWIDTH 363 0
DWIDTH 4 0
BBX 3 5 0 0
BITMAP
A0
A0
40
A0
A0
ENDCHAR
STARTCHAR U+0059
ENCODING 89
SWIDTH 363 0
DWIDTH 4 0
BBX 3 5 0 0
BITMAP
A0
A0
40
40
40
ENDCHAR
STARTCHAR U+005A
ENCODING 90
SWIDTH 363 0
DWIDTH 4 0
BBX 3 5 0 0
BITMAP
E0
20
40
80
E0
ENDCHAR
STARTCHAR U+005B
ENCODING 91
SWIDTH 272 0
DWIDTH 3 0
BBX 2 5 0 0
BITMAP
C0
80
80
80
C0
ENDCHAR
STARTCHAR U+005C
ENCODING 92
SWIDTH 272 0
DWIDTH 3 0
BBX 2 5 0 0
BITMAP
80
80
40
40
40
ENDCHAR
STARTCHAR U+005D
ENCODING 93
SWIDTH 272 0
DWIDTH 3 0
BBX 2 5 0 0
BITMAP
C0
40
40
40
C0
ENDCHAR
STARTCHAR U+005E
ENCODING 94
SWIDTH 363 0
DWIDTH 4 0
BBX 3 2 0 3
BITMAP
40
A0
ENDCHAR
STARTCHAR U+005F
ENCODING 95
SWIDTH 363 0
DWIDTH 4 0
BBX 3 1 0 0
BITMAP
E0
ENDCHAR
STARTCHAR U+0060
ENCODING 96
SWIDTH 272 0
DWIDTH 3 0
BBX 2 2 0 3
BITMAP
80
40
ENDCHAR
STARTCHAR U+0061
ENCODING 97
SWIDTH 363 0
DWIDTH 4 0
BBX 3 4 0 0
BITMAP
60
A0
A0
60
ENDCHAR
STARTCHAR U+0062
ENCODING 98
SWIDTH 363 0
DWIDTH 4 0
BBX 3 5 0 0
BITMAP
80
C0
A0
A0
C0
ENDCHAR
STARTCHAR U+0063
ENCODING 99
SWIDTH 363 0
DWIDTH 4 0
BBX 3 4 0 0
BITMAP
60
80
80
60
ENDCHAR
STARTCHAR U+0064
ENCODING 100
SWIDTH 363 0
DWIDTH 4 0
BBX 3 5 0 0
BITMAP
20
60
A0
A0
60
ENDCHAR
STARTCHAR U+0065
ENCODING 101
SWIDTH 363 0
DWIDTH 4 0
BBX 3 4 0 0
BITMAP
40
E0
80
60
ENDCHAR
STARTCHAR U+0066
ENCODING 102
SWIDTH 272 0
DWIDTH 3 0
BBX 2 5 0 0
BITMAP
40
80
C0
80
80
ENDCHAR
STARTCHAR U+0067
ENCODING 103
SWIDTH 363 0
DWIDTH 4 0
BBX 3 5 0 -1
BITMAP
60
A0
A0
60
C0
ENDCHAR
STARTCHAR U+0068
ENCODING 104
SWIDTH 363 0
DWIDTH 4 0
BBX 3 5 0 0
BITMAP
80
C0
A0
A0
A0
ENDCHAR
STARTCHAR U+0069
ENCODING 105
SWIDTH 181 0
DWIDTH 2 0
BBX 1 6 0 0
BITMAP
80
00
80
80
80
80
ENDCHAR
STARTCHAR U+006A
ENCODING 106
SWIDTH 181 0
DWIDTH 2 0
BBX 1 7 0 -1
BITMAP
80
00
80
80
80
80
80
ENDCHAR
STARTCHAR U+006B
ENCODING 107
SWIDTH 363 0
DWIDTH 4 0
BBX 3 5 0 0
BITMAP
80
A0
C0
A0
A0
ENDCHAR
STARTCHAR U+006C
ENCODING 108
SWIDTH 181 0
DWIDTH 2 0
BBX 1 5 0 0
BITMAP
80
80
80
80
80
ENDCHAR
STARTCHAR U+006D
ENCODING 109
SWIDTH 545 0
DWIDTH 6 0
BBX 5 4 0 0
BITMAP
F0
A8
A8
A8
ENDCHAR
STARTCHAR U+006E
ENCODING 110
SWIDTH 363 0
DWIDTH 4 0
BBX 3 4 0 0
BITMAP
C0
A0
A0
A0
ENDCHAR
STARTCHAR U+006F
ENCODING 111
SWIDTH 363 0
DWIDTH 4 0
BBX 3 4 0 0
BITMAP
40
A0
A0
40
ENDCHAR
STARTCHAR U+0070
ENCODING 112
SWIDTH 363 0
DWIDTH 4 0
BBX 3 5 0 -1
BITMAP
C0
A0
A0
C0
80
ENDCHAR
STARTCHAR U+0071
ENCODING 113
SWIDTH 363 0
DWIDTH 4 0
BBX 3 5 0 -1
BITMAP
60
A0
A0
60
20
ENDCHAR
STARTCHAR U+0072
ENCODING 114
SWIDTH 272 0
DWIDTH 3 0
BBX 2 4 0 0
BITMAP
C0
80
80
80
ENDCHAR
STARTCHAR U+0073
ENCODING 115
SWIDTH 363 0
DWIDTH 4 0
BBX 3 4 0 0
BITMAP
60
C0
20
C0
ENDCHAR
STARTCHAR U+0074
ENCODING 116
SWIDTH 272 0
DWIDTH 3 0
BBX 2 5 0 0
BITMAP
80
C0
80
80
40
ENDCHAR
STARTCHAR U+0075
ENCODING 117
SWIDTH 363 0
DWIDTH 4 0
BBX 3 4 0 0
BITMAP
A0
A0
A0
60
ENDCHAR
STARTCHAR U+0076
ENCODING 118
SWIDTH 363 0
DWIDTH 4 0
BBX 3 4 0 0
BITMAP
A0
A0
40
40
ENDCHAR
STARTCHAR U+0077
ENCODING 119
SWIDTH 545 0
DWIDTH 6 0
BBX 5 4 0 0
BITMAP
A8
A8
50
50
ENDCHAR
STARTCHAR U+0078
ENCODING 120
SWIDTH 363 0
DWIDTH 4 0
BBX 3 4 0 0
BITMAP
A0
40
40
A0
ENDCHAR
STARTCHAR U+0079
ENCODING 121
SWIDTH 363 0
DWIDTH 4 0
BBX 3 5 0 -1
BITMAP
A0
A0
A0
40
80
ENDCHAR
STARTCHAR U+007A
ENCODING 122
SWIDTH 363 0
DWIDTH 4 0
BBX 3 4 0 0
BITMAP
E0
40
80
E0
ENDCHAR
STARTCHAR U+007B
ENCODING 123
SWIDTH 363 0
DWIDTH 4 0
BBX 3 5 0 0
BITMAP
60
40
80
40
60
ENDCHAR
STARTCHAR U+007C
ENCODING 124
SWIDTH 181 0
DWIDTH 2 0
BBX 1 5 0 0
BITMAP
80
80
80
80
80
ENDCHAR
STARTCHAR U+007D
ENCODING 125
SWIDTH 363 0
DWIDTH 4 0
BBX 3 5 0 0
BITMAP
C0
40
20
40
C0
ENDCHAR
STARTCHAR U+007E
ENCODING 126
SWIDTH 454 0
DWIDTH 5 0
BBX 4 2 0 1
BITMAP
50
A0
ENDCHAR
STARTCHAR U+00A0
ENCODING 160
SWIDTH 181 0
DWIDTH 2 0
BBX 0 0 0 0
BITMAP
ENDCHAR
STARTCHAR U+00A1
ENCODING 161
SWIDTH 181 0
DWIDTH 2 0
BBX 1 5 0 0
BITMAP
80
00
80
80
80
ENDCHAR
STARTCHAR U+00A2
ENCODING 162
SWIDTH 363 0
DWIDTH 4 0
BBX 3 5 0 0
BITMAP
40
60
80
60
40
ENDCHAR
STARTCHAR U+00A3
ENCODING 163
SWIDTH 454 0
DWIDTH 5 0
BBX 4 5 0 0
BITMAP
20
50
E0
40
F0
ENDCHAR
STARTCHAR U+00A4
ENCODING 164
SWIDTH 454 0
DWIDTH 5 0
BBX 4 4 0 0
BITMAP
90
60
60
90
ENDCHAR
STARTCHAR U+00A5
ENCODING 165
SWIDTH 363 0
DWIDTH 4 0
BBX 3 5 0 0
BITMAP
A0
A0
40
E0
40
ENDCHAR
STARTCHAR U+00A6
ENCODING 166
SWIDTH 181 0
DWIDTH 2 0
BBX 1 5 0 0
BITMAP
80
80
00
80
80
ENDCHAR
STARTCHAR U+00A7
ENCODING 167
SWIDTH 363 0
DWIDTH 4 0
BBX 3 5 0 0
BITMAP
60
C0
A0
60
C0
ENDCHAR
STARTCHAR U+00A8
ENCODING 168
SWIDTH 363 0
DWIDTH 4 0
BBX 3 1 0 4
BITMAP
A0
ENDCHAR
STARTCHAR U+00A9
ENCODING 169
SWIDTH 363 0
DWIDTH 4 0
BBX 3 4 0 1
BITMAP
60
80
80
60
ENDCHAR
STARTCHAR U+00AA
ENCODING 170
SWIDTH 363 0
DWIDTH 4 0
BBX 3 4 0 1
BITMAP
60
A0
A0
60
ENDCHAR
STARTCHAR U+00AB
ENCODING 171
SWIDTH 454 0
DWIDTH 5 0
BBX 4 3 0 1
BITMAP
50
A0
50
ENDCHAR
STARTCHAR U+00AC
ENCODING 172
SWIDTH 363 0
DWIDTH 4 0
BBX 3 2 0 1
BITMAP
E0
20
ENDCHAR
STARTCHAR U+00AE
ENCODING 174
SWIDTH 363 0
DWIDTH 4 0
BBX 3 4 0 1
BITMAP
C0
A0
C0
A0
ENDCHAR
STARTCHAR U+00AF
ENCODING 175
SWIDTH 363 0
DWIDTH 4 0
BBX 3 1 0 4
BITMAP
E0
ENDCHAR
STARTCHAR U+00B0
ENCODING 176
SWIDTH 363 0
DWIDTH 4 0
BBX 3 3 0 2
BITMAP
40
A0
40
ENDCHAR
STARTCHAR U+00B1
ENCODING 177
SWIDTH 363 0
DWIDTH 4 0
BBX 3 5 0 0
BITMAP
40
E0
40
00
E0
ENDCHAR
STARTCHAR U+00B2
ENCODING 178
SWIDTH 363 0
DWIDTH 4 0
BBX 3 4 0 1
BITMAP
C0
20
40
E0
ENDCHAR
STARTCHAR U+00B3
ENCODING 179
SWIDTH 363 0
DWIDTH 4 0
BBX 3 4 0 1
BITMAP
E0
40
20
C0
ENDCHAR
STARTCHAR U+00B4
ENCODING 180
SWIDTH 272 0
DWIDTH 3 0
BBX 2 2 0 3
BITMAP
40
80
ENDCHAR
STARTCHAR U+00B5
ENCODING 181
SWIDTH 363 0
DWIDTH 4 0
BBX 3 4 0 -1
BITMAP
A0
A0
E0
80
ENDCHAR
STARTCHAR U+00B6
ENCODING 182
SWIDTH 363 0
DWIDTH 4 0
BBX 3 5 0 0
BITMAP
60
E0
60
20
20
ENDCHAR
STARTCHAR U+00B7
ENCODING 183
SWIDTH 181 0
DWIDTH 2 0
BBX 1 1 0 2
BITMAP
80
ENDCHAR
STARTCHAR U+00B8
ENCODING 184
SWIDTH 272 0
DWIDTH 3 0
BBX 2 2 0 -1
BITMAP
40
80
ENDCHAR
STARTCHAR U+00B9
ENCODING 185
SWIDTH 272 0
DWIDTH 3 0
BBX 2 4 0 1
BITMAP
40
C0
40
40
ENDCHAR
STARTCHAR U+00BA
ENCODING 186
SWIDTH 363 0
DWIDTH 4 0
BBX 3 4 0 1
BITMAP
40
A0
A0
40
ENDCHAR
STARTCHAR U+00BB
ENCODING 187
SWIDTH 454 0
DWIDTH 5 0
BBX 4 3 0 1
BITMAP
A0
50
A0
ENDCHAR
STARTCHAR U+00BC
ENCODING 188
SWIDTH 818 0
DWIDTH 9 0
BBX 8 5 0 0
BITMAP
48
C9
53
57
01
ENDCHAR
STARTCHAR U+00BD
ENCODING 189
SWIDTH 909 0
DWIDTH 10 0
BBX 9 5 0 0
BITMAP
4800
CB00
5080
5100
0380
ENDCHAR
STARTCHAR U+00BE
ENCODING 190
SWIDTH 909 0
DWIDTH 10 0
BBX 9 5 0 0
BITMAP
E400
4480
2980
CB80
0080
ENDCHAR
STARTCHAR U+00BF
ENCODING 191
SWIDTH 363 0
DWIDTH 4 0
BBX 3 5 0 0
BITMAP
40
00
40
80
60
ENDCHAR
STARTCHAR U+00C0
ENCODING 192
SWIDTH 454 0
DWIDTH 5 0
BBX 4 7 0 0
BITMAP
40
20
60
90
F0
90
90
ENDCHAR
STARTCHAR U+00C1
ENCODING 193
SWIDTH 454 0
DWIDTH 5 0
BBX 4 7 0 0
BITMAP
20
40
60
90
F0
90
90
ENDCHAR
STARTCHAR U+00C2
ENCODING 194
SWIDTH 454 0
DWIDTH 5 0
BBX 4 7 0 0
BITMAP
60
90
60
90
F0
90
90
ENDCHAR
STARTCHAR U+00C3
ENCODING 195
SWIDTH 454 0
DWIDTH 5 0
BBX 4 7 0 0
BITMAP
60
00
60
90
F0
90
90
ENDCHAR
STARTCHAR U+00C4
ENCODING 196
SWIDTH 454 0
DWIDTH 5 0
BBX 4 7 0 0
BITMAP
90
00
60
90
F0
90
90
ENDCHAR
STARTCHAR U+00C5
ENCODING 197
SWIDTH 454 0
DWIDTH 5 0
BBX 4 7 0 0
BITMAP
60
60
60
90
F0
90
90
ENDCHAR
STARTCHAR U+00C6
ENCODING 198
SWIDTH 545 0
DWIDTH 6 0
BBX 5 5 0 0
BITMAP
78
A0
F8
A0
B8
ENDCHAR
STARTCHAR U+00C7
ENCODING 199
SWIDTH 454 0
DWIDTH 5 0
BBX 4 6 0 -1
BITMAP
60
90
80
90
60
40
ENDCHAR
STARTCHAR U+00C8
ENCODING 200
SWIDTH 454 0
DWIDTH 5 0
BBX 4 7 0 0
BITMAP
40
20
F0
80
E0
80
F0
ENDCHAR
STARTCHAR U+00C9
ENCODING 201
SWIDTH 454 0
DWIDTH 5 0
BBX 4 7 0 0
BITMAP
20
40
F0
80
E0
80
F0
ENDCHAR
STARTCHAR U+00CA
ENCODING 202
SWIDTH 454 0
DWIDTH 5 0
BBX 4 7 0 0
BITMAP
60
90
F0
80
E0
80
F0
ENDCHAR
STARTCHAR U+00CB
ENCODING 203
SWIDTH 454 0
DWIDTH 5 0
BBX 4 7 0 0
BITMAP
90
00
F0
80
E0
80
F0
ENDCHAR
STARTCHAR U+00CC
ENCODING 204
SWIDTH 181 0
DWIDTH 2 0
BBX 2 7 -1 0
BITMAP
80
40
00
40
40
40
40
ENDCHAR
STARTCHAR U+00CD
ENCODING 205
SWIDTH 181 0
DWIDTH 2 0
BBX 2 7 0 0
BITMAP
40
80
00
80
80
80
80
ENDCHAR
STARTCHAR U+00CE
ENCODING 206
SWIDTH 181 0
DWIDTH 2 0
BBX 3 7 -1 0
BITMAP
40
A0
00
40
40
40
40
ENDCHAR
STARTCHAR U+00CF
ENCODING 207
SWIDTH 181 0
DWIDTH 2 0
BBX 3 7 -1 0
BITMAP
A0
00
40
40
40
40
40
ENDCHAR
STARTCHAR U+00D0
ENCODING 208
SWIDTH 454 0
DWIDTH 5 0
BBX 4 5 0 0
BITMAP
E0
90
D0
90
E0
ENDCHAR
STARTCHAR U+00D1
ENCODING 209
SWIDTH 454 0
DWIDTH 5 0
BBX 4 7 0 0
BITMAP
60
00
90
D0
B0
90
90
ENDCHAR
STARTCHAR U+00D2
ENCODING 210
SWIDTH 454 0
DWIDTH 5 0
BBX 4 7 0 0
BITMAP
40
20
60
90
90
90
60
ENDCHAR
STARTCHAR U+00D3
ENCODING 211
SWIDTH 454 0
DWIDTH 5 0
BBX 4 7 0 0
BITMAP
20
40
60
90
90
90
60
ENDCHAR
STARTCHAR U+00D4
ENCODING 212
SWIDTH 454 0
DWIDTH 5 0
BBX 4 7 0 0
BITMAP
60
90
60
90
90
90
60
ENDCHAR
STARTCHAR U+00D5
ENCODING 213
SWIDTH 454 0
DWIDTH 5 0
BBX 4 7 0 0
BITMAP
60
00
60
90
90
90
60
ENDCHAR
STARTCHAR U+00D6
ENCODING 214
SWIDTH 454 0
DWIDTH 5 0
BBX 4 7 0 0
BITMAP
90
00
60
90
90
90
60
ENDCHAR
STARTCHAR U+00D7
ENCODING 215
SWIDTH 363 0
DWIDTH 4 0
BBX 3 3 0 1
BITMAP
A0
40
A0
ENDCHAR
STARTCHAR U+00D8
ENCODING 216
SWIDTH 454 0
DWIDTH 5 0
BBX 4 5 0 0
BITMAP
60
B0
D0
90
60
ENDCHAR
STARTCHAR U+00D9
ENCODING 217
SWIDTH 454 0
DWIDTH 5 0
BBX 4 7 0 0
BITMAP
40
20
90
90
90
90
60
ENDCHAR
STARTCHAR U+00DA
ENCODING 218
SWIDTH 454 0
DWIDTH 5 0
BBX 4 7 0 0
BITMAP
20
40
90
90
90
90
60
ENDCHAR
STARTCHAR U+00DB
ENCODING 219
SWIDTH 454 0
DWIDTH 5 0
BBX 4 7 0 0
BITMAP
60
90
00
90
90
90
60
ENDCHAR
STARTCHAR U+00DC
ENCODING 220
SWIDTH 454 0
DWIDTH 5 0
BBX 4 7 0 0
BITMAP
90
00
90
90
90
90
60
ENDCHAR
STARTCHAR U+00DD
ENCODING 221
SWIDTH 363 0
DWIDTH 4 0
BBX 3 7 0 0
BITMAP
20
40
00
A0
A0
40
40
ENDCHAR
STARTCHAR U+00DE
ENCODING 222
SWIDTH 454 0
DWIDTH 5 0
BBX 4 5 0 0
BITMAP
80
E0
90
E0
80
ENDCHAR
STARTCHAR U+00DF
ENCODING 223
SWIDTH 363 0
DWIDTH 4 0
BBX 3 6 0 -1
BITMAP
40
A0
C0
A0
C0
80
ENDCHAR
STARTCHAR U+00E0
ENCODING 224
SWIDTH 363 0
DWIDTH 4 0
BBX 3 7 0 0
BITMAP
80
40
00
60
A0
A0
60
ENDCHAR
STARTCHAR U+00E1
ENCODING 225
SWIDTH 363 0
DWIDTH 4 0
BBX 3 7 0 0
BITMAP
20
40
00
60
A0
A0
60
ENDCHAR
STARTCHAR U+00E2
ENCODING 226
SWIDTH 363 0
DWIDTH 4 0
BBX 3 7 0 0
BITMAP
40
A0
00
60
A0
A0
60
ENDCHAR
STARTCHAR U+00E3
ENCODING 227
SWIDTH 363 0
DWIDTH 4 0
BBX 3 6 0 0
BITMAP
60
00
60
A0
A0
60
ENDCHAR
STARTCHAR U+00E4
ENCODING 228
SWIDTH 363 0
DWIDTH 4 0
BBX 3 6 0 0
BITMAP
A0
00
60
A0
A0
60
ENDCHAR
STARTCHAR U+00E5
ENCODING 229
SWIDTH 363 0
DWIDTH 4 0
BBX 3 7 0 0
BITMAP
60
60
00
60
A0
A0
60
ENDCHAR
STARTCHAR U+00E6
ENCODING 230
SWIDTH 545 0
DWIDTH 6 0
BBX 5 4 0 0
BITMAP
70
B8
A0
78
ENDCHAR
STARTCHAR U+00E7
ENCODING 231
SWIDTH 363 0
DWIDTH 4 0
BBX 3 5 0 -1
BITMAP
60
80
80
60
40
ENDCHAR
STARTCHAR U+00E8
ENCODING 232
SWIDTH 363 0
DWIDTH 4 0
BBX 3 7 0 0
BITMAP
80
40
00
40
E0
80
60
ENDCHAR
STARTCHAR U+00E9
ENCODING 233
SWIDTH 363 0
DWIDTH 4 0
BBX 3 7 0 0
BITMAP
20
40
00
40
E0
80
60
ENDCHAR
STARTCHAR U+00EA
ENCODING 234
SWIDTH 363 0
DWIDTH 4 0
BBX 3 7 0 0
BITMAP
40
A0
00
40
E0
80
60
ENDCHAR
STARTCHAR U+00EB
ENCODING 235
SWIDTH 363 0
DWIDTH 4 0
BBX 3 6 0 0
BITMAP
A0
00
40
E0
80
60
ENDCHAR
STARTCHAR U+00EC
ENCODING 236
SWIDTH 181 0
DWIDTH 2 0
BBX 2 7 -1 0
BITMAP
80
40
00
40
40
40
40
ENDCHAR
STARTCHAR U+00ED
ENCODING 237
SWIDTH 181 0
DWIDTH 2 0
BBX 2 7 0 0
BITMAP
40
80
00
80
80
80
80
ENDCHAR
STARTCHAR U+00EE
ENCODING 238
SWIDTH 181 0
DWIDTH 2 0
BBX 3 7 -1 0
BITMAP
40
A0
00
40
40
40
40
ENDCHAR
STARTCHAR U+00EF
ENCODING 239
SWIDTH 181 0
DWIDTH 2 0
BBX 3 6 -1 0
BITMAP
A0
00
40
40
40
40
ENDCHAR
STARTCHAR U+00F0
ENCODING 240
SWIDTH 363 0
DWIDTH 4 0
BBX 3 5 0 0
BITMAP
40
20
60
A0
40
ENDCHAR
STARTCHAR U+00F1
ENCODING 241
SWIDTH 363 0
DWIDTH 4 0
BBX 3 6 0 0
BITMAP
C0
00
C0
A0
A0
A0
ENDCHAR
STARTCHAR U+00F2
ENCODING 242
SWIDTH 363 0
DWIDTH 4 0
BBX 3 7 0 0
BITMAP
80
40
00
40
A0
A0
40
ENDCHAR
STARTCHAR U+00F3
ENCODING 243
SWIDTH 363 0
DWIDTH 4 0
BBX 3 7 0 0
BITMAP
20
40
00
40
A0
A0
40
ENDCHAR
STARTCHAR U+00F4
ENCODING 244
SWIDTH 363 0
DWIDTH 4 0
BBX 3 7 0 0
BITMAP
40
A0
00
40
A0
A0
40
ENDCHAR
STARTCHAR U+00F5
ENCODING 245
SWIDTH 363 0
DWIDTH 4 0
BBX 3 6 0 0
BITMAP
60
00
40
A0
A0
40
ENDCHAR
STARTCHAR U+00F6
ENCODING 246
SWIDTH 363 0
DWIDTH 4 0
BBX 3 6 0 0
BITMAP
A0
00
40
A0
A0
40
ENDCHAR
STARTCHAR U+00F7
ENCODING 247
SWIDTH 363 0
DWIDTH 4 0
BBX 3 5 0 0
BITMAP
40
00
E0
00
40
ENDCHAR
STARTCHAR U+00F8
ENCODING 248
SWIDTH 363 0
DWIDTH 4 0
BBX 3 4 0 0
BITMAP
40
E0
A0
40
ENDCHAR
STARTCHAR U+00F9
ENCODING 249
SWIDTH 363 0
DWIDTH 4 0
BBX 3 7 0 0
BITMAP
80
40
00
A0
A0
A0
60
ENDCHAR
STARTCHAR U+00FA
ENCODING 250
SWIDTH 363 0
DWIDTH 4 0
BBX 3 7 0 0
BITMAP
20
40
00
A0
A0
A0
60
ENDCHAR
STARTCHAR U+00FB
ENCODING 251
SWIDTH 363 0
DWIDTH 4 0
BBX 3 7 0 0
BITMAP
40
A0
00
A0
A0
A0
60
ENDCHAR
STARTCHAR U+00FC
ENCODING 252
SWIDTH 363 0
DWIDTH 4 0
BBX 3 6 0 0
BITMAP
A0
00
A0
A0
A0
60
ENDCHAR
STARTCHAR U+00FD
ENCODING 253
SWIDTH 363 0
DWIDTH 4 0
BBX 3 8 0 -1
BITMAP
20
40
00
A0
A0
A0
40
80
ENDCHAR
STARTCHAR U+00FE
ENCODING 254
SWIDTH 363 0
DWIDTH 4 0
BBX 3 6 0 -1
BITMAP
80
C0
A0
A0
C0
80
ENDCHAR
STARTCHAR U+00FF
ENCODING 255
SWIDTH 363 0
DWIDTH 4 0
BBX 3 7 0 -1
BITMAP
A0
00
A0
A0
A0
40
80
ENDCHAR
STARTCHAR U+0100
ENCODING 256
SWIDTH 454 0
DWIDTH 5 0
BBX 4 7 0 0
BITMAP
F0
00
60
90
F0
90
90
ENDCHAR
STARTCHAR U+0101
ENCODING 257
SWIDTH 363 0
DWIDTH 4 0
BBX 3 6 0 0
BITMAP
E0
00
60
A0
A0
60
ENDCHAR
STARTCHAR U+0102
ENCODING 258
SWIDTH 454 0
DWIDTH 5 0
BBX 4 7 0 0
BITMAP
90
60
60
90
F0
90
90
ENDCHAR
STARTCHAR U+0103
ENCODING 259
SWIDTH 363 0
DWIDTH 4 0
BBX 3 7 0 0
BITMAP
A0
40
00
60
A0
A0
60
ENDCHAR
STARTCHAR U+0104
ENCODING 260
SWIDTH 454 0
DWIDTH 5 0
BBX 4 6 0 -1
BITMAP
60
90
F0
90
90
20
ENDCHAR
STARTCHAR U+0105
ENCODING 261
SWIDTH 363 0
DWIDTH 4 0
BBX 3 5 0 -1
BITMAP
60
A0
A0
60
40
ENDCHAR
STARTCHAR U+0106
ENCODING 262
SWIDTH 454 0
DWIDTH 5 0
BBX 4 7 0 0
BITMAP
20
40
60
90
80
90
60
ENDCHAR
STARTCHAR U+0107
ENCODING 263
SWIDTH 363 0
DWIDTH 4 0
BBX 3 7 0 0
BITMAP
20
40
00
60
80
80
60
ENDCHAR
STARTCHAR U+0108
ENCODING 264
SWIDTH 454 0
DWIDTH 5 0
BBX 4 7 0 0
BITMAP
60
90
60
90
80
90
60
ENDCHAR
STARTCHAR U+0109
ENCODING 265
SWIDTH 363 0
DWIDTH 4 0
BBX 3 7 0 0
BITMAP
40
A0
00
60
80
80
60
ENDCHAR
STARTCHAR U+010A
ENCODING 266
SWIDTH 454 0
DWIDTH 5 0
BBX 4 7 0 0
BITMAP
20
00
60
90
80
90
60
ENDCHAR
STARTCHAR U+010B
ENCODING 267
SWIDTH 363 0
DWIDTH 4 0
BBX 3 6 0 0
BITMAP
40
00
60
80
80
60
ENDCHAR
STARTCHAR U+010C
ENCODING 268
SWIDTH 454 0
DWIDTH 5 0
BBX 4 7 0 0
BITMAP
90
60
60
90
80
90
60
ENDCHAR
STARTCHAR U+010D
ENCODING 269
SWIDTH 363 0
DWIDTH 4 0
BBX 3 7 0 0
BITMAP
A0
40
00
60
80
80
60
ENDCHAR
STARTCHAR U+010E
ENCODING 270
SWIDTH 454 0
DWIDTH 5 0
BBX 4 7 0 0
BITMAP
90
60
E0
90
90
90
E0
ENDCHAR
STARTCHAR U+010F
ENCODING 271
SWIDTH 545 0
DWIDTH 6 0
BBX 5 5 0 0
BITMAP
28
68
A0
A0
60
ENDCHAR
STARTCHAR U+0110
ENCODING 272
SWIDTH 454 0
DWIDTH 5 0
BBX 4 5 0 0
BITMAP
E0
90
D0
90
E0
ENDCHAR
STARTCHAR U+0111
ENCODING 273
SWIDTH 363 0
DWIDTH 4 0
BBX 4 6 0 0
BITMAP
20
70
60
A0
A0
60
ENDCHAR
STARTCHAR U+0112
ENCODING 274
SWIDTH 454 0
DWIDTH 5 0
BBX 4 7 0 0
BITMAP
F0
00
F0
80
E0
80
F0
ENDCHAR
STARTCHAR U+0113
ENCODING 275
SWIDTH 363 0
DWIDTH 4 0
BBX 3 6 0 0
BITMAP
E0
00
40
E0
80
60
ENDCHAR
STARTCHAR U+0114
ENCODING 276
SWIDTH 454 0
DWIDTH 5 0
BBX 4 7 0 0
BITMAP
90
60
F0
80
E0
80
F0
ENDCHAR
STARTCHAR U+0115
ENCODING 277
SWIDTH 363 0
DWIDTH 4 0
BBX 3 7 0 0
BITMAP
A0
40
00
40
E0
80
60
ENDCHAR
STARTCHAR U+0116
ENCODING 278
SWIDTH 454 0
DWIDTH 5 0
BBX 4 7 0 0
BITMAP
20
00
F0
80
E0
80
F0
ENDCHAR
STARTCHAR U+0117
ENCODING 279
SWIDTH 363 0
DWIDTH 4 0
BBX 3 6 0 0
BITMAP
40
00
40
E0
80
60
ENDCHAR
STARTCHAR U+0118
ENCODING 280
SWIDTH 454 0
DWIDTH 5 0
BBX 4 6 0 -1
BITMAP
F0
80
E0
80
F0
20
ENDCHAR
STARTCHAR U+0119
ENCODING 281
SWIDTH 363 0
DWIDTH 4 0
BBX 3 5 0 -1
BITMAP
40
E0
80
60
40
ENDCHAR
STARTCHAR U+011A
ENCODING 282
SWIDTH 454 0
DWIDTH 5 0
BBX 4 7 0 0
BITMAP
90
60
F0
80
E0
80
F0
ENDCHAR
STARTCHAR U+011B
ENCODING 283
SWIDTH 363 0
DWIDTH 4 0
BBX 3 7 0 0
BITMAP
A0
40
00
40
E0
80
60
ENDCHAR
STARTCHAR U+011C
ENCODING 284
SWIDTH 454 0
DWIDTH 5 0
BBX 4 7 0 0
BITMAP
60
90
70
80
B0
90
70
ENDCHAR
STARTCHAR U+011D
ENCODING 285
SWIDTH 363 0
DWIDTH 4 0
BBX 3 8 0 -1
BITMAP
40
A0
00
60
A0
A0
60
C0
ENDCHAR
STARTCHAR U+011E
ENCODING 286
SWIDTH 454 0
DWIDTH 5 0
BBX 4 7 0 0
BITMAP
90
60
70
80
B0
90
70
ENDCHAR
STARTCHAR U+011F
ENCODING 287
SWIDTH 363 0
DWIDTH 4 0
BBX 3 8 0 -1
BITMAP
A0
40
00
60
A0
A0
60
C0
ENDCHAR
STARTCHAR U+0120
ENCODING 288
SWIDTH 454 0
DWIDTH 5 0
BBX 4 7 0 0
BITMAP
20
00
70
80
B0
90
70
ENDCHAR
STARTCHAR U+0121
ENCODING 289
SWIDTH 363 0
DWIDTH 4 0
BBX 3 7 0 -1
BITMAP
40
00
60
A0
A0
60
C0
ENDCHAR
STARTCHAR U+0122
ENCODING 290
SWIDTH 454 0
DWIDTH 5 0
BBX 4 6 0 -1
BITMAP
70
80
B0
90
70
20
ENDCHAR
STARTCHAR U+0123
ENCODING 291
SWIDTH 363 0
DWIDTH 4 0
BBX 3 8 0 -1
BITMAP
20
40
00
60
A0
A0
60
C0
ENDCHAR
STARTCHAR U+0124
ENCODING 292
SWIDTH 454 0
DWIDTH 5 0
BBX 4 7 0 0
BITMAP
60
90
00
90
F0
90
90
ENDCHAR
STARTCHAR U+0125
ENCODING 293
SWIDTH 363 0
DWIDTH 4 0
BBX 3 7 0 0
BITMAP
40
A0
00
80
C0
A0
A0
ENDCHAR
STARTCHAR U+0126
ENCODING 294
SWIDTH 636 0
DWIDTH 7 0
BBX 6 6 0 0
BITMAP
48
FC
48
78
48
48
ENDCHAR
STARTCHAR U+0127
ENCODING 295
SWIDTH 454 0
DWIDTH 5 0
BBX 4 6 0 0
BITMAP
40
E0
60
50
50
50
ENDCHAR
STARTCHAR U+0128
ENCODING 296
SWIDTH 181 0
DWIDTH 2 0
BBX 3 7 -1 0
BITMAP
60
C0
40
40
40
40
40
ENDCHAR
STARTCHAR U+0129
ENCODING 297
SWIDTH 181 0
DWIDTH 2 0
BBX 3 7 -1 0
BITMAP
60
C0
00
40
40
40
40
ENDCHAR
STARTCHAR U+012A
ENCODING 298
SWIDTH 181 0
DWIDTH 2 0
BBX 3 7 -1 0
BITMAP
E0
00
40
40
40
40
40
ENDCHAR
STARTCHAR U+012B
ENCODING 299
SWIDTH 181 0
DWIDTH 2 0
BBX 3 6 -1 0
BITMAP
E0
00
40
40
40
40
ENDCHAR
STARTCHAR U+012C
ENCODING 300
SWIDTH 181 0
DWIDTH 2 0
BBX 3 7 -1 0
BITMAP
A0
40
00
40
40
40
40
ENDCHAR
STARTCHAR U+012D
ENCODING 301
SWIDTH 181 0
DWIDTH 2 0
BBX 3 7 -1 0
BITMAP
A0
40
00
40
40
40
40
ENDCHAR
STARTCHAR U+012E
ENCODING 302
SWIDTH 181 0
DWIDTH 2 0
BBX 2 6 -1 -1
BITMAP
40
40
40
40
40
80
ENDCHAR
STARTCHAR U+012F
ENCODING 303
SWIDTH 181 0
DWIDTH 2 0
BBX 2 7 -1 -1
BITMAP
40
00
40
40
40
40
80
ENDCHAR
STARTCHAR U+0130
ENCODING 304
SWIDTH 181 0
DWIDTH 2 0
BBX 1 7 0 0
BITMAP
80
00
80
80
80
80
80
ENDCHAR
STARTCHAR U+0131
ENCODING 305
SWIDTH 181 0
DWIDTH 2 0
BBX 1 4 0 0
BITMAP
80
80
80
80
ENDCHAR
STARTCHAR U+0132
ENCODING 306
SWIDTH 545 0
DWIDTH 6 0
BBX 5 5 0 0
BITMAP
88
88
88
A8
90
ENDCHAR
STARTCHAR U+0133
ENCODING 307
SWIDTH 363 0
DWIDTH 4 0
BBX 3 7 0 -1
BITMAP
A0
00
A0
A0
A0
A0
20
ENDCHAR
STARTCHAR U+0134
ENCODING 308
SWIDTH 363 0
DWIDTH 4 0
BBX 3 7 0 0
BITMAP
40
A0
00
20
20
A0
40
ENDCHAR
STARTCHAR U+0135
ENCODING 309
SWIDTH 181 0
DWIDTH 2 0
BBX 3 8 -1 -1
BITMAP
40
A0
00
40
40
40
40
40
ENDCHAR
STARTCHAR U+0136
ENCODING 310
SWIDTH 454 0
DWIDTH 5 0
BBX 4 6 0 -1
BITMAP
90
A0
C0
A0
90
20
ENDCHAR
STARTCHAR U+0137
ENCODING 311
SWIDTH 363 0
DWIDTH 4 0
BBX 3 6 0 -1
BITMAP
80
A0
C0
A0
A0
40
ENDCHAR
STARTCHAR U+0138
ENCODING 312
SWIDTH 363 0
DWIDTH 4 0
BBX 3 4 0 0
BITMAP
A0
C0
A0
A0
ENDCHAR
STARTCHAR U+0139
ENCODING 313
SWIDTH 363 0
DWIDTH 4 0
BBX 3 7 0 0
BITMAP
20
40
80
80
80
80
E0
ENDCHAR
STARTCHAR U+013A
ENCODING 314
SWIDTH 181 0
DWIDTH 2 0
BBX 2 7 0 0
BITMAP
40
80
00
80
80
80
80
ENDCHAR
STARTCHAR U+013B
ENCODING 315
SWIDTH 363 0
DWIDTH 4 0
BBX 3 6 0 -1
BITMAP
80
80
80
80
E0
40
ENDCHAR
STARTCHAR U+013C
ENCODING 316
SWIDTH 181 0
DWIDTH 2 0
BBX 2 6 -1 -1
BITMAP
40
40
40
40
40
80
ENDCHAR
STARTCHAR U+013D
ENCODING 317
SWIDTH 363 0
DWIDTH 4 0
BBX 3 5 0 0
BITMAP
A0
A0
80
80
E0
ENDCHAR
STARTCHAR U+013E
ENCODING 318
SWIDTH 363 0
DWIDTH 4 0
BBX 3 5 0 0
BITMAP
A0
A0
80
80
80
ENDCHAR
STARTCHAR U+013F
ENCODING 319
SWIDTH 363 0
DWIDTH 4 0
BBX 3 5 0 0
BITMAP
80
80
A0
80
E0
ENDCHAR
STARTCHAR U+0140
ENCODING 320
SWIDTH 363 0
DWIDTH 4 0
BBX 3 5 0 0
BITMAP
80
80
A0
80
80
ENDCHAR
STARTCHAR U+0141
ENCODING 321
SWIDTH 454 0
DWIDTH 5 0
BBX 4 5 0 0
BITMAP
40
60
C0
40
70
ENDCHAR
STARTCHAR U+0142
ENCODING 322
SWIDTH 363 0
DWIDTH 4 0
BBX 3 5 0 0
BITMAP
40
60
C0
40
40
ENDCHAR
STARTCHAR U+0143
ENCODING 323
SWIDTH 454 0
DWIDTH 5 0
BBX 4 7 0 0
BITMAP
20
40
90
D0
B0
90
90
ENDCHAR
STARTCHAR U+0144
ENCODING 324
SWIDTH 363 0
DWIDTH 4 0
BBX 3 7 0 0
BITMAP
20
40
00
C0
A0
A0
A0
ENDCHAR
STARTCHAR U+0145
ENCODING 325
SWIDTH 454 0
DWIDTH 5 0
BBX 4 6 0 -1
BITMAP
90
D0
B0
90
90
20
ENDCHAR
STARTCHAR U+0146
ENCODING 326
SWIDTH 363 0
DWIDTH 4 0
BBX 3 5 0 -1
BITMAP
C0
A0
A0
A0
40
ENDCHAR
STARTCHAR U+0147
ENCODING 327
SWIDTH 454 0
DWIDTH 5 0
BBX 4 7 0 0
BITMAP
90
60
90
D0
B0
90
90
ENDCHAR
STARTCHAR U+0148
ENCODING 328
SWIDTH 363 0
DWIDTH 4 0
BBX 3 7 0 0
BITMAP
A0
40
00
C0
A0
A0
A0
ENDCHAR
STARTCHAR U+0149
ENCODING 329
SWIDTH 545 0
DWIDTH 6 0
BBX 5 5 0 0
BITMAP
80
B0
28
28
28
ENDCHAR
STARTCHAR U+014A
ENCODING 330
SWIDTH 454 0
DWIDTH 5 0
BBX 4 6 0 -1
BITMAP
90
D0
B0
90
90
20
ENDCHAR
STARTCHAR U+014B
ENCODING 331
SWIDTH 363 0
DWIDTH 4 0
BBX 3 5 0 -1
BITMAP
C0
A0
A0
A0
40
ENDCHAR
STARTCHAR U+014C
ENCODING 332
SWIDTH 454 0
DWIDTH 5 0
BBX 4 7 0 0
BITMAP
F0
00
60
90
90
90
60
ENDCHAR
STARTCHAR U+014D
ENCODING 333
SWIDTH 363 0
DWIDTH 4 0
BBX 3 6 0 0
BITMAP
E0
00
40
A0
A0
40
ENDCHAR
STARTCHAR U+014E
ENCODING 334
SWIDTH 454 0
DWIDTH 5 0
BBX 4 7 0 0
BITMAP
90
60
60
90
90
90
60
ENDCHAR
STARTCHAR U+014F
ENCODING 335
SWIDTH 363 0
DWIDTH 4 0
BBX 3 7 0 0
BITMAP
A0
40
00
40
A0
A0
40
ENDCHAR
STARTCHAR U+0150
ENCODING 336
SWIDTH 454 0
DWIDTH 5 0
BBX 4 7 0 0
BITMAP
50
A0
60
90
90
90
60
ENDCHAR
STARTCHAR U+0151
ENCODING 337
SWIDTH 363 0
DWIDTH 4 0
BBX 4 7 0 0
BITMAP
50
A0
00
40
A0
A0
40
ENDCHAR
STARTCHAR U+0152
ENCODING 338
SWIDTH 545 0
DWIDTH 6 0
BBX 5 5 0 0
BITMAP
78
A0
B8
A0
78
ENDCHAR
STARTCHAR U+0153
ENCODING 339
SWIDTH 545 0
DWIDTH 6 0
BBX 5 4 0 0
BITMAP
50
B8
A0
58
ENDCHAR
STARTCHAR U+0154
ENCODING 340
SWIDTH 454 0
DWIDTH 5 0
BBX 4 7 0 0
BITMAP
20
40
E0
90
E0
90
90
ENDCHAR
STARTCHAR U+0155
ENCODING 341
SWIDTH 272 0
DWIDTH 3 0
BBX 2 7 0 0
BITMAP
40
80
00
C0
80
80
80
ENDCHAR
STARTCHAR U+0156
ENCODING 342
SWIDTH 454 0
DWIDTH 5 0
BBX 4 6 0 -1
BITMAP
E0
90
E0
90
90
20
ENDCHAR
STARTCHAR U+0157
ENCODING 343
SWIDTH 272 0
DWIDTH 3 0
BBX 2 5 0 -1
BITMAP
C0
80
80
80
40
ENDCHAR
STARTCHAR U+0158
ENCODING 344
SWIDTH 454 0
DWIDTH 5 0
BBX 4 7 0 0
BITMAP
90
60
E0
90
E0
90
90
ENDCHAR
STARTCHAR U+0159
ENCODING 345
SWIDTH 272 0
DWIDTH 3 0
BBX 3 7 0 0
BITMAP
A0
40
00
C0
80
80
80
ENDCHAR
STARTCHAR U+015A
ENCODING 346
SWIDTH 454 0
DWIDTH 5 0
BBX 4 7 0 0
BITMAP
20
40
70
80
60
10
E0
ENDCHAR
STARTCHAR U+015B
ENCODING 347
SWIDTH 363 0
DWIDTH 4 0
BBX 3 7 0 0
BITMAP
20
40
00
60
C0
20
C0
ENDCHAR
STARTCHAR U+015C
ENCODING 348
SWIDTH 454 0
DWIDTH 5 0
BBX 4 7 0 0
BITMAP
60
90
70
80
60
10
E0
ENDCHAR
STARTCHAR U+015D
ENCODING 349
SWIDTH 363 0
DWIDTH 4 0
BBX 3 7 0 0
BITMAP
40
A0
00
60
C0
20
C0
ENDCHAR
STARTCHAR U+015E
ENCODING 350
SWIDTH 454 0
DWIDTH 5 0
BBX 4 6 0 -1
BITMAP
70
80
60
10
E0
20
ENDCHAR
STARTCHAR U+015F
ENCODING 351
SWIDTH 363 0
DWIDTH 4 0
BBX 3 5 0 -1
BITMAP
60
C0
20
C0
40
ENDCHAR
STARTCHAR U+0160
ENCODING 352
SWIDTH 454 0
DWIDTH 5 0
BBX 4 7 0 0
BITMAP
90
60
70
80
60
10
E0
ENDCHAR
STARTCHAR U+0161
ENCODING 353
SWIDTH 363 0
DWIDTH 4 0
BBX 3 7 0 0
BITMAP
A0
40
00
60
C0
20
C0
ENDCHAR
STARTCHAR U+0162
ENCODING 354
SWIDTH 363 0
DWIDTH 4 0
BBX 3 6 0 -1
BITMAP
E0
40
40
40
40
80
ENDCHAR
STARTCHAR U+0163
ENCODING 355
SWIDTH 272 0
DWIDTH 3 0
BBX 2 6 0 -1
BITMAP
80
C0
80
80
40
80
ENDCHAR
STARTCHAR U+0164
ENCODING 356
SWIDTH 363 0
DWIDTH 4 0
BBX 3 7 0 0
BITMAP
A0
40
E0
40
40
40
40
ENDCHAR
STARTCHAR U+0165
ENCODING 357
SWIDTH 454 0
DWIDTH 5 0
BBX 4 5 0 0
BITMAP
90
D0
80
80
40
ENDCHAR
STARTCHAR U+0166
ENCODING 358
SWIDTH 363 0
DWIDTH 4 0
BBX 3 5 0 0
BITMAP
E0
40
E0
40
40
ENDCHAR
STARTCHAR U+0167
ENCODING 359
SWIDTH 272 0
DWIDTH 3 0
BBX 2 6 0 0
BITMAP
80
C0
80
C0
80
40
ENDCHAR
STARTCHAR U+0168
ENCODING 360
SWIDTH 454 0
DWIDTH 5 0
BBX 4 7 0 0
BITMAP
60
00
90
90
90
90
60
ENDCHAR
STARTCHAR U+0169
ENCODING 361
SWIDTH 363 0
DWIDTH 4 0
BBX 3 6 0 0
BITMAP
60
00
A0
A0
A0
60
ENDCHAR
STARTCHAR U+016A
ENCODING 362
SWIDTH 454 0
DWIDTH 5 0
BBX 4 7 0 0
BITMAP
F0
00
90
90
90
90
60
ENDCHAR
STARTCHAR U+016B
ENCODING 363
SWIDTH 363 0
DWIDTH 4 0
BBX 3 6 0 0
BITMAP
E0
00
A0
A0
A0
60
ENDCHAR
STARTCHAR U+016C
ENCODING 364
SWIDTH 454 0
DWIDTH 5 0
BBX 4 7 0 0
BITMAP
90
60
00
90
90
90
60
ENDCHAR
STARTCHAR U+016D
ENCODING 365
SWIDTH 363 0
DWIDTH 4 0
BBX 3 7 0 0
BITMAP
A0
40
00
A0
A0
A0
60
ENDCHAR
STARTCHAR U+016E
ENCODING 366
SWIDTH 454 0
DWIDTH 5 0
BBX 4 7 0 0
BITMAP
60
60
00
90
90
90
60
ENDCHAR
STARTCHAR U+016F
ENCODING 367
SWIDTH 363 0
DWIDTH 4 0
BBX 3 7 0 0
BITMAP
60
60
00
A0
A0
A0
60
ENDCHAR
STARTCHAR U+0170
ENCODING 368
SWIDTH 454 0
DWIDTH 5 0
BBX 4 7 0 0
BITMAP
50
A0
00
90
90
90
60
ENDCHAR
STARTCHAR U+0171
ENCODING 369
SWIDTH 363 0
DWIDTH 4 0
BBX 4 7 0 0
BITMAP
50
A0
00
A0
A0
A0
60
ENDCHAR
STARTCHAR U+0172
ENCODING 370
SWIDTH 454 0
DWIDTH 5 0
BBX 4 6 0 -1
BITMAP
90
90
90
90
60
20
ENDCHAR
STARTCHAR U+0173
ENCODING 371
SWIDTH 363 0
DWIDTH 4 0
BBX 3 5 0 -1
BITMAP
A0
A0
A0
60
40
ENDCHAR
STARTCHAR U+0174
ENCODING 372
SWIDTH 545 0
DWIDTH 6 0
BBX 5 7 0 0
BITMAP
20
50
A8
A8
A8
50
50
ENDCHAR
STARTCHAR U+0175
ENCODING 373
SWIDTH 545 0
DWIDTH 6 0
BBX 5 7 0 0
BITMAP
20
50
00
A8
A8
50
50
ENDCHAR
STARTCHAR U+0176
ENCODING 374
SWIDTH 363 0
DWIDTH 4 0
BBX 3 7 0 0
BITMAP
40
A0
00
A0
A0
40
40
ENDCHAR
STARTCHAR U+0177
ENCODING 375
SWIDTH 363 0
DWIDTH 4 0
BBX 3 8 0 -1
BITMAP
40
A0
00
A0
A0
A0
40
80
ENDCHAR
STARTCHAR U+0178
ENCODING 376
SWIDTH 363 0
DWIDTH 4 0
BBX 3 7 0 0
BITMAP
A0
00
A0
A0
A0
40
40
ENDCHAR
STARTCHAR U+0179
ENCODING 377
SWIDTH 363 0
DWIDTH 4 0
BBX 3 7 0 0
BITMAP
20
40
E0
20
40
80
E0
ENDCHAR
STARTCHAR U+017A
ENCODING 378
SWIDTH 363 0
DWIDTH 4 0
BBX 3 7 0 0
BITMAP
20
40
00
E0
40
80
E0
ENDCHAR
STARTCHAR U+017B
ENCODING 379
SWIDTH 363 0
DWIDTH 4 0
BBX 3 7 0 0
BITMAP
40
00
E0
20
40
80
E0
ENDCHAR
STARTCHAR U+017C
ENCODING 380
SWIDTH 363 0
DWIDTH 4 0
BBX 3 6 0 0
BITMAP
40
00
E0
40
80
E0
ENDCHAR
STARTCHAR U+017D
ENCODING 381
SWIDTH 363 0
DWIDTH 4 0
BBX 3 7 0 0
BITMAP
A0
40
E0
20
40
80
E0
ENDCHAR
STARTCHAR U+017E
ENCODING 382
SWIDTH 363 0
DWIDTH 4 0
BBX 3 7 0 0
BITMAP
A0
40
00
E0
40
80
E0
ENDCHAR
STARTCHAR U+017F
ENCODING 383
SWIDTH 272 0
DWIDTH 3 0
BBX 2 5 0 0
BITMAP
40
80
80
80
80
ENDCHAR
STARTCHAR U+01FC
ENCODING 508
SWIDTH 545 0
DWIDTH 6 0
BBX 5 7 0 0
BITMAP
10
20
78
A0
F8
A0
B8
ENDCHAR
STARTCHAR U+01FD
ENCODING 509
SWIDTH 545 0
DWIDTH 6 0
BBX 5 7 0 0
BITMAP
10
20
00
70
B8
A0
78
ENDCHAR
STARTCHAR U+01FE
ENCODING 510
SWIDTH 454 0
DWIDTH 5 0
BBX 4 7 0 0
BITMAP
20
40
60
B0
D0
90
60
ENDCHAR
STARTCHAR U+01FF
ENCODING 511
SWIDTH 363 0
DWIDTH 4 0
BBX 3 7 0 0
BITMAP
20
40
00
40
E0
A0
40
ENDCHAR
STARTCHAR U+0218
ENCODING 536
SWIDTH 454 0
DWIDTH 5 0
BBX 4 6 0 -1
BITMAP
70
80
60
10
E0
20
ENDCHAR
STARTCHAR U+0219
ENCODING 537
SWIDTH 363 0
DWIDTH 4 0
BBX 3 5 0 -1
BITMAP
60
C0
20
C0
40
ENDCHAR
STARTCHAR U+021A
ENCODING 538
SWIDTH 363 0
DWIDTH 4 0
BBX 3 6 0 -1
BITMAP
E0
40
40
40
40
80
ENDCHAR
STARTCHAR U+021B
ENCODING 539
SWIDTH 272 0
DWIDTH 3 0
BBX 2 6 0 -1
BITMAP
80
C0
80
80
40
80
ENDCHAR
STARTCHAR U+0237
ENCODING 567
SWIDTH 181 0
DWIDTH 2 0
BBX 1 5 0 -1
BITMAP
80
80
80
80
80
ENDCHAR
STARTCHAR U+02C6
ENCODING 710
SWIDTH 363 0
DWIDTH 4 0
BBX 3 2 0 3
BITMAP
40
A0
ENDCHAR
STARTCHAR U+02C7
ENCODING 711
SWIDTH 363 0
DWIDTH 4 0
BBX 3 2 0 3
BITMAP
A0
40
ENDCHAR
STARTCHAR U+02D8
ENCODING 728
SWIDTH 363 0
DWIDTH 4 0
BBX 3 2 0 3
BITMAP
A0
40
ENDCHAR
STARTCHAR U+02D9
ENCODING 729
SWIDTH 181 0
DWIDTH 2 0
BBX 1 1 0 4
BITMAP
80
ENDCHAR
STARTCHAR U+02DA
ENCODING 730
SWIDTH 272 0
DWIDTH 3 0
BBX 2 2 0 3
BITMAP
C0
C0
ENDCHAR
STARTCHAR U+02DB
ENCODING 731
SWIDTH 181 0
DWIDTH 2 0
BBX 1 1 0 -1
BITMAP
80
ENDCHAR
STARTCHAR U+02DC
ENCODING 732
SWIDTH 272 0
DWIDTH 3 0
BBX 2 1 0 4
BITMAP
C0
ENDCHAR
STARTCHAR U+02DD
ENCODING 733
SWIDTH 454 0
DWIDTH 5 0
BBX 4 2 0 3
BITMAP
50
A0
ENDCHAR
STARTCHAR U+0300
ENCODING 768
SWIDTH 272 0
DWIDTH 3 0
BBX 2 2 0 3
BITMAP
80
40
ENDCHAR
STARTCHAR U+0301
ENCODING 769
SWIDTH 272 0
DWIDTH 3 0
BBX 2 2 0 3
BITMAP
40
80
ENDCHAR
STARTCHAR U+0302
ENCODING 770
SWIDTH 363 0
DWIDTH 4 0
BBX 3 2 0 3
BITMAP
40
A0
ENDCHAR
STARTCHAR U+0303
ENCODING 771
SWIDTH 272 0
DWIDTH 3 0
BBX 2 1 0 4
BITMAP
C0
ENDCHAR
STARTCHAR U+0304
ENCODING 772
SWIDTH 363 0
DWIDTH 4 0
BBX 3 1 0 4
BITMAP
E0
ENDCHAR
STARTCHAR U+0306
ENCODING 774
SWIDTH 363 0
DWIDTH 4 0
BBX 3 2 0 3
BITMAP
A0
40
ENDCHAR
STARTCHAR U+0307
ENCODING 775
SWIDTH 181 0
DWIDTH 2 0
BBX 1 1 0 4
BITMAP
80
ENDCHAR
STARTCHAR U+0308
ENCODING 776
SWIDTH 363 0
DWIDTH 4 0
BBX 3 1 0 4
BITMAP
A0
ENDCHAR
STARTCHAR U+030A
ENCODING 778
SWIDTH 272 0
DWIDTH 3 0
BBX 2 2 0 3
BITMAP
C0
C0
ENDCHAR
STARTCHAR U+030B
ENCODING 779
SWIDTH 454 0
DWIDTH 5 0
BBX 4 2 0 3
BITMAP
50
A0
ENDCHAR
STARTCHAR U+030C
ENCODING 780
SWIDTH 363 0
DWIDTH 4 0
BBX 3 2 0 3
BITMAP
A0
40
ENDCHAR
STARTCHAR U+0326
ENCODING 806
SWIDTH 181 0
DWIDTH 2 0
BBX 1 1 0 -1
BITMAP
80
ENDCHAR
STARTCHAR U+0327
ENCODING 807
SWIDTH 181 0
DWIDTH 2 0
BBX 1 1 0 -1
BITMAP
80
ENDCHAR
STARTCHAR U+0328
ENCODING 808
SWIDTH 181 0
DWIDTH 2 0
BBX 1 1 0 -1
BITMAP
80
ENDCHAR
STARTCHAR U+03C0
ENCODING 960
SWIDTH 363 0
DWIDTH 4 0
BBX 3 4 0 0
BITMAP
E0
A0
A0
A0
ENDCHAR
STARTCHAR U+0E3F
ENCODING 3647
SWIDTH 454 0
DWIDTH 5 0
BBX 4 7 0 -1
BITMAP
20
E0
90
E0
90
E0
20
ENDCHAR
STARTCHAR U+1E80
ENCODING 7808
SWIDTH 545 0
DWIDTH 6 0
BBX 5 7 0 0
BITMAP
20
10
A8
A8
A8
50
50
ENDCHAR
STARTCHAR U+1E81
ENCODING 7809
SWIDTH 545 0
DWIDTH 6 0
BBX 5 7 0 0
BITMAP
40
20
00
A8
A8
50
50
ENDCHAR
STARTCHAR U+1E82
ENCODING 7810
SWIDTH 545 0
DWIDTH 6 0
BBX 5 7 0 0
BITMAP
20
40
A8
A8
A8
50
50
ENDCHAR
STARTCHAR U+1E83
ENCODING 7811
SWIDTH 545 0
DWIDTH 6 0
BBX 5 7 0 0
BITMAP
10
20
00
A8
A8
50
50
ENDCHAR
STARTCHAR U+1E84
ENCODING 7812
SWIDTH 545 0
DWIDTH 6 0
BBX 5 7 0 0
BITMAP
50
00
A8
A8
A8
50
50
ENDCHAR
STARTCHAR U+1E85
ENCODING 7813
SWIDTH 545 0
DWIDTH 6 0
BBX 5 6 0 0
BITMAP
50
00
A8
A8
50
50
ENDCHAR
STARTCHAR U+1E9E
ENCODING 7838
SWIDTH 454 0
DWIDTH 5 0
BBX 4 5 0 0
BITMAP
60
90
A0
90
A0
ENDCHAR
STARTCHAR U+1EF2
ENCODING 7922
SWIDTH 363 0
DWIDTH 4 0
BBX 3 7 0 0
BITMAP
80
40
00
A0
A0
40
40
ENDCHAR
STARTCHAR U+1EF3
ENCODING 7923
SWIDTH 363 0
DWIDTH 4 0
BBX 3 8 0 -1
BITMAP
80
40
00
A0
A0
A0
40
80
ENDCHAR
STARTCHAR U+2013
ENCODING 8211
SWIDTH 363 0
DWIDTH 4 0
BBX 3 1 0 2
BITMAP
E0
ENDCHAR
STARTCHAR U+2014
ENCODING 8212
SWIDTH 545 0
DWIDTH 6 0
BBX 5 1 0 2
BITMAP
F8
ENDCHAR
STARTCHAR U+2015
ENCODING 8213
SWIDTH 454 0
DWIDTH 5 0
BBX 4 1 0 2
BITMAP
F0
ENDCHAR
STARTCHAR U+2016
ENCODING 8214
SWIDTH 363 0
DWIDTH 4 0
BBX 3 5 0 0
BITMAP
A0
A0
A0
A0
A0
ENDCHAR
STARTCHAR U+2018
ENCODING 8216
SWIDTH 181 0
DWIDTH 2 0
BBX 1 2 0 4
BITMAP
80
80
ENDCHAR
STARTCHAR U+2019
ENCODING 8217
SWIDTH 181 0
DWIDTH 2 0
BBX 1 2 0 4
BITMAP
80
80
ENDCHAR
STARTCHAR U+201A
ENCODING 8218
SWIDTH 181 0
DWIDTH 2 0
BBX 1 2 0 -1
BITMAP
80
80
ENDCHAR
STARTCHAR U+201B
ENCODING 8219
SWIDTH 181 0
DWIDTH 2 0
BBX 1 2 0 4
BITMAP
80
80
ENDCHAR
STARTCHAR U+201C
ENCODING 8220
SWIDTH 363 0
DWIDTH 4 0
BBX 3 2 0 4
BITMAP
A0
A0
ENDCHAR
STARTCHAR U+201D
ENCODING 8221
SWIDTH 363 0
DWIDTH 4 0
BBX 3 2 0 4
BITMAP
A0
A0
ENDCHAR
STARTCHAR U+201E
ENCODING 8222
SWIDTH 363 0
DWIDTH 4 0
BBX 3 2 0 -1
BITMAP
A0
A0
ENDCHAR
STARTCHAR U+201F
ENCODING 8223
SWIDTH 363 0
DWIDTH 4 0
BBX 3 2 0 4
BITMAP
A0
A0
ENDCHAR
STARTCHAR U+2020
ENCODING 8224
SWIDTH 363 0
DWIDTH 4 0
BBX 3 5 0 0
BITMAP
40
E0
40
40
40
ENDCHAR
STARTCHAR U+2021
ENCODING 8225
SWIDTH 363 0
DWIDTH 4 0
BBX 3 5 0 0
BITMAP
40
E0
40
E0
40
ENDCHAR
STARTCHAR U+2022
ENCODING 8226
SWIDTH 272 0
DWIDTH 3 0
BBX 2 2 0 2
BITMAP
C0
C0
ENDCHAR
STARTCHAR U+2023
ENCODING 8227
SWIDTH 272 0
DWIDTH 3 0
BBX 2 3 0 1
BITMAP
80
C0
80
ENDCHAR
STARTCHAR U+2024
ENCODING 8228
SWIDTH 181 0
DWIDTH 2 0
BBX 1 1 0 0
BITMAP
80
ENDCHAR
STARTCHAR U+2025
ENCODING 8229
SWIDTH 363 0
DWIDTH 4 0
BBX 3 1 0 0
BITMAP
A0
ENDCHAR
STARTCHAR U+2026
ENCODING 8230
SWIDTH 545 0
DWIDTH 6 0
BBX 5 1 0 0
BITMAP
A8
ENDCHAR
STARTCHAR U+2030
ENCODING 8240
SWIDTH 636 0
DWIDTH 7 0
BBX 6 4 0 1
BITMAP
90
20
40
94
ENDCHAR
STARTCHAR U+2031
ENCODING 8241
SWIDTH 818 0
DWIDTH 9 0
BBX 8 4 0 1
BITMAP
90
20
40
95
ENDCHAR
STARTCHAR U+2032
ENCODING 8242
SWIDTH 181 0
DWIDTH 2 0
BBX 1 2 0 4
BITMAP
80
80
ENDCHAR
STARTCHAR U+2033
ENCODING 8243
SWIDTH 363 0
DWIDTH 4 0
BBX 3 2 0 4
BITMAP
A0
A0
ENDCHAR
STARTCHAR U+2034
ENCODING 8244
SWIDTH 545 0
DWIDTH 6 0
BBX 5 2 0 4
BITMAP
A8
A8
ENDCHAR
STARTCHAR U+2035
ENCODING 8245
SWIDTH 181 0
DWIDTH 2 0
BBX 1 2 0 4
BITMAP
80
80
ENDCHAR
STARTCHAR U+2036
ENCODING 8246
SWIDTH 363 0
DWIDTH 4 0
BBX 3 2 0 4
BITMAP
A0
A0
ENDCHAR
STARTCHAR U+2037
ENCODING 8247
SWIDTH 545 0
DWIDTH 6 0
BBX 5 2 0 4
BITMAP
A8
A8
ENDCHAR
STARTCHAR U+2039
ENCODING 8249
SWIDTH 272 0
DWIDTH 3 0
BBX 2 3 0 1
BITMAP
40
80
40
ENDCHAR
STARTCHAR U+203A
ENCODING 8250
SWIDTH 272 0
DWIDTH 3 0
BBX 2 3 0 1
BITMAP
80
40
80
ENDCHAR
STARTCHAR U+2044
ENCODING 8260
SWIDTH 272 0
DWIDTH 3 0
BBX 2 5 0 0
BITMAP
40
40
80
80
80
ENDCHAR
STARTCHAR U+2074
ENCODING 8308
SWIDTH 363 0
DWIDTH 4 0
BBX 3 4 0 1
BITMAP
20
60
E0
20
ENDCHAR
STARTCHAR U+2075
ENCODING 8309
SWIDTH 363 0
DWIDTH 4 0
BBX 3 4 0 1
BITMAP
E0
C0
20
C0
ENDCHAR
STARTCHAR U+2076
ENCODING 8310
SWIDTH 363 0
DWIDTH 4 0
BBX 3 4 0 1
BITMAP
60
C0
A0
40
ENDCHAR
STARTCHAR U+2077
ENCODING 8311
SWIDTH 363 0
DWIDTH 4 0
BBX 3 4 0 1
BITMAP
E0
20
40
40
ENDCHAR
STARTCHAR U+2078
ENCODING 8312
SWIDTH 363 0
DWIDTH 4 0
BBX 3 4 0 1
BITMAP
40
E0
A0
40
ENDCHAR
STARTCHAR U+2079
ENCODING 8313
SWIDTH 363 0
DWIDTH 4 0
BBX 3 4 0 1
BITMAP
40
A0
60
C0
ENDCHAR
STARTCHAR U+2081
ENCODING 8321
SWIDTH 272 0
DWIDTH 3 0
BBX 2 4 0 0
BITMAP
40
C0
40
40
ENDCHAR
STARTCHAR U+2082
ENCODING 8322
SWIDTH 363 0
DWIDTH 4 0
BBX 3 4 0 0
BITMAP
C0
20
40
E0
ENDCHAR
STARTCHAR U+2083
ENCODING 8323
SWIDTH 363 0
DWIDTH 4 0
BBX 3 4 0 0
BITMAP
E0
40
20
C0
ENDCHAR
STARTCHAR U+2084
ENCODING 8324
SWIDTH 363 0
DWIDTH 4 0
BBX 3 4 0 0
BITMAP
20
60
E0
20
ENDCHAR
STARTCHAR U+2085
ENCODING 8325
SWIDTH 363 0
DWIDTH 4 0
BBX 3 4 0 0
BITMAP
E0
C0
20
C0
ENDCHAR
STARTCHAR U+2086
ENCODING 8326
SWIDTH 363 0
DWIDTH 4 0
BBX 3 4 0 0
BITMAP
60
C0
A0
40
ENDCHAR
STARTCHAR U+2087
ENCODING 8327
SWIDTH 363 0
DWIDTH 4 0
BBX 3 4 0 0
BITMAP
E0
20
40
40
ENDCHAR
STARTCHAR U+2088
ENCODING 8328
SWIDTH 363 0
DWIDTH 4 0
BBX 3 4 0 0
BITMAP
40
E0
A0
40
ENDCHAR
STARTCHAR U+2089
ENCODING 8329
SWIDTH 363 0
DWIDTH 4 0
BBX 3 4 0 0
BITMAP
40
A0
60
C0
ENDCHAR
STARTCHAR U+2096
ENCODING 8342
SWIDTH 0 0
DWIDTH 0 0
BBX 0 0 0 0
BITMAP
ENDCHAR
STARTCHAR U+20A1
ENCODING 8353
SWIDTH 454 0
DWIDTH 5 0
BBX 4 7 0 -1
BITMAP
60
60
90
80
90
60
60
ENDCHAR
STARTCHAR U+20A6
ENCODING 8358
SWIDTH 636 0
DWIDTH 7 0
BBX 6 5 0 0
BITMAP
48
68
DC
48
48
ENDCHAR
STARTCHAR U+20A8
ENCODING 8360
SWIDTH 818 0
DWIDTH 9 0
BBX 8 5 0 0
BITMAP
E0
93
E6
91
96
ENDCHAR
STARTCHAR U+20A9
ENCODING 8361
SWIDTH 727 0
DWIDTH 8 0
BBX 7 5 0 0
BITMAP
54
D6
54
EE
28
ENDCHAR
STARTCHAR U+20AA
ENCODING 8362
SWIDTH 636 0
DWIDTH 7 0
BBX 6 5 0 0
BITMAP
E4
94
B4
A4
B8
ENDCHAR
STARTCHAR U+20AB
ENCODING 8363
SWIDTH 454 0
DWIDTH 5 0
BBX 4 7 0 -1
BITMAP
20
30
60
A0
A0
60
E0
ENDCHAR
STARTCHAR U+20AC
ENCODING 8364
SWIDTH 363 0
DWIDTH 4 0
BBX 3 5 0 0
BITMAP
60
80
E0
80
60
ENDCHAR
STARTCHAR U+20AD
ENCODING 8365
SWIDTH 454 0
DWIDTH 5 0
BBX 4 5 0 0
BITMAP
90
A0
F0
A0
90
ENDCHAR
STARTCHAR U+20AE
ENCODING 8366
SWIDTH 363 0
DWIDTH 4 0
BBX 3 5 0 0
BITMAP
E0
40
E0
40
40
ENDCHAR
STARTCHAR U+20B1
ENCODING 8369
SWIDTH 545 0
DWIDTH 6 0
BBX 5 5 0 0
BITMAP
70
C8
70
40
40
ENDCHAR
STARTCHAR U+20B2
ENCODING 8370
SWIDTH 454 0
DWIDTH 5 0
BBX 4 7 0 -1
BITMAP
20
70
80
B0
90
70
20
ENDCHAR
STARTCHAR U+20B4
ENCODING 8372
SWIDTH 363 0
DWIDTH 4 0
BBX 3 5 0 0
BITMAP
C0
20
E0
80
60
ENDCHAR
STARTCHAR U+20B5
ENCODING 8373
SWIDTH 454 0
DWIDTH 5 0
BBX 4 7 0 -1
BITMAP
20
60
90
80
90
60
20
ENDCHAR
STARTCHAR U+20B8
ENCODING 8376
SWIDTH 363 0
DWIDTH 4 0
BBX 3 5 0 0
BITMAP
E0
00
E0
40
40
ENDCHAR
STARTCHAR U+20B9
ENCODING 8377
SWIDTH 363 0
DWIDTH 4 0
BBX 3 5 0 0
BITMAP
C0
20
C0
20
20
ENDCHAR
STARTCHAR U+20BA
ENCODING 8378
SWIDTH 454 0
DWIDTH 5 0
BBX 4 5 0 0
BITMAP
40
60
C0
50
60
ENDCHAR
STARTCHAR U+20BC
ENCODING 8380
SWIDTH 545 0
DWIDTH 6 0
BBX 5 5 0 0
BITMAP
20
70
A8
A8
A8
ENDCHAR
STARTCHAR U+20BD
ENCODING 8381
SWIDTH 454 0
DWIDTH 5 0
BBX 4 5 0 0
BITMAP
60
50
60
F0
40
ENDCHAR
STARTCHAR U+20BE
ENCODING 8382
SWIDTH 454 0
DWIDTH 5 0
BBX 4 5 0 0
BITMAP
60
F0
80
40
F0
ENDCHAR
STARTCHAR U+20BF
ENCODING 8383
SWIDTH 454 0
DWIDTH 5 0
BBX 4 7 0 -1
BITMAP
40
E0
90
E0
90
E0
40
ENDCHAR
STARTCHAR U+2113
ENCODING 8467
SWIDTH 181 0
DWIDTH 2 0
BBX 1 5 0 0
BITMAP
80
80
80
80
80
ENDCHAR
STARTCHAR U+2116
ENCODING 8470
SWIDTH 818 0
DWIDTH 9 0
BBX 8 5 0 0
BITMAP
92
D5
B2
90
90
ENDCHAR
STARTCHAR U+2122
ENCODING 8482
SWIDTH 636 0
DWIDTH 7 0
BBX 6 3 0 2
BITMAP
FC
5C
54
ENDCHAR
STARTCHAR U+2126
ENCODING 8486
SWIDTH 545 0
DWIDTH 6 0
BBX 5 5 0 0
BITMAP
70
88
88
50
D8
ENDCHAR
STARTCHAR U+212E
ENCODING 8494
SWIDTH 363 0
DWIDTH 4 0
BBX 3 4 0 0
BITMAP
40
E0
80
60
ENDCHAR
STARTCHAR U+2153
ENCODING 8531
SWIDTH 909 0
DWIDTH 10 0
BBX 9 5 0 0
BITMAP
4800
CB80
5100
5080
0300
ENDCHAR
STARTCHAR U+2154
ENCODING 8532
SWIDTH 1000 0
DWIDTH 11 0
BBX 10 5 0 0
BITMAP
C400
25C0
4880
E840
0180
ENDCHAR
STARTCHAR U+2190
ENCODING 8592
SWIDTH 545 0
DWIDTH 6 0
BBX 5 5 0 0
BITMAP
20
60
F8
60
20
ENDCHAR
STARTCHAR U+2191
ENCODING 8593
SWIDTH 545 0
DWIDTH 6 0
BBX 5 5 0 0
BITMAP
20
70
F8
20
20
ENDCHAR
STARTCHAR U+2192
ENCODING 8594
SWIDTH 545 0
DWIDTH 6 0
BBX 5 5 0 0
BITMAP
20
30
F8
30
20
ENDCHAR
STARTCHAR U+2193
ENCODING 8595
SWIDTH 545 0
DWIDTH 6 0
BBX 5 5 0 0
BITMAP
20
20
F8
70
20
ENDCHAR
STARTCHAR U+2194
ENCODING 8596
SWIDTH 727 0
DWIDTH 8 0
BBX 7 5 0 0
BITMAP
28
6C
FE
6C
28
ENDCHAR
STARTCHAR U+2195
ENCODING 8597
SWIDTH 545 0
DWIDTH 6 0
BBX 5 7 0 -1
BITMAP
20
70
F8
20
F8
70
20
ENDCHAR
STARTCHAR U+2196
ENCODING 8598
SWIDTH 545 0
DWIDTH 6 0
BBX 5 5 0 0
BITMAP
E0
C0
A0
10
08
ENDCHAR
STARTCHAR U+2197
ENCODING 8599
SWIDTH 545 0
DWIDTH 6 0
BBX 5 5 0 0
BITMAP
38
18
28
40
80
ENDCHAR
STARTCHAR U+2198
ENCODING 8600
SWIDTH 545 0
DWIDTH 6 0
BBX 5 5 0 0
BITMAP
80
40
28
18
38
ENDCHAR
STARTCHAR U+2199
ENCODING 8601
SWIDTH 545 0
DWIDTH 6 0
BBX 5 5 0 0
BITMAP
08
10
A0
C0
E0
ENDCHAR
STARTCHAR U+2202
ENCODING 8706
SWIDTH 363 0
DWIDTH 4 0
BBX 3 5 0 0
BITMAP
40
20
60
A0
40
ENDCHAR
STARTCHAR U+2205
ENCODING 8709
SWIDTH 454 0
DWIDTH 5 0
BBX 4 5 0 0
BITMAP
60
B0
D0
90
60
ENDCHAR
STARTCHAR U+2206
ENCODING 8710
SWIDTH 545 0
DWIDTH 6 0
BBX 5 5 0 0
BITMAP
20
20
50
50
F8
ENDCHAR
STARTCHAR U+220F
ENCODING 8719
SWIDTH 454 0
DWIDTH 5 0
BBX 4 5 0 0
BITMAP
F0
90
90
90
90
ENDCHAR
STARTCHAR U+2211
ENCODING 8721
SWIDTH 454 0
DWIDTH 5 0
BBX 4 5 0 0
BITMAP
F0
40
20
40
F0
ENDCHAR
STARTCHAR U+2212
ENCODING 8722
SWIDTH 272 0
DWIDTH 3 0
BBX 2 1 0 2
BITMAP
C0
ENDCHAR
STARTCHAR U+221A
ENCODING 8730
SWIDTH 454 0
DWIDTH 5 0
BBX 4 5 0 0
BITMAP
70
40
40
C0
40
ENDCHAR
STARTCHAR U+221E
ENCODING 8734
SWIDTH 545 0
DWIDTH 6 0
BBX 5 3 0 1
BITMAP
50
A8
50
ENDCHAR
STARTCHAR U+222B
ENCODING 8747
SWIDTH 363 0
DWIDTH 4 0
BBX 3 7 0 -1
BITMAP
20
40
40
40
40
40
80
ENDCHAR
STARTCHAR U+2248
ENCODING 8776
SWIDTH 454 0
DWIDTH 5 0
BBX 4 5 0 0
BITMAP
50
A0
00
50
A0
ENDCHAR
STARTCHAR U+2260
ENCODING 8800
SWIDTH 363 0
DWIDTH 4 0
BBX 3 5 0 0
BITMAP
20
E0
40
E0
80
ENDCHAR
STARTCHAR U+2264
ENCODING 8804
SWIDTH 363 0
DWIDTH 4 0
BBX 3 7 0 -1
BITMAP
20
40
80
40
20
00
E0
ENDCHAR
STARTCHAR U+2265
ENCODING 8805
SWIDTH 363 0
DWIDTH 4 0
BBX 3 7 0 -1
BITMAP
80
40
20
40
80
00
E0
ENDCHAR
STARTCHAR U+25A0
ENCODING 9632
SWIDTH 363 0
DWIDTH 4 0
BBX 3 3 0 1
BITMAP
E0
E0
E0
ENDCHAR
STARTCHAR U+25A1
ENCODING 9633
SWIDTH 363 0
DWIDTH 4 0
BBX 3 3 0 1
BITMAP
E0
A0
E0
ENDCHAR
STARTCHAR U+25AA
ENCODING 9642
SWIDTH 272 0
DWIDTH 3 0
BBX 2 2 0 2
BITMAP
C0
C0
ENDCHAR
STARTCHAR U+25AB
ENCODING 9643
SWIDTH 272 0
DWIDTH 3 0
BBX 2 2 0 2
BITMAP
C0
C0
ENDCHAR
STARTCHAR U+25B2
ENCODING 9650
SWIDTH 545 0
DWIDTH 6 0
BBX 5 3 0 2
BITMAP
20
70
F8
ENDCHAR
STARTCHAR U+25B3
ENCODING 9651
SWIDTH 545 0
DWIDTH 6 0
BBX 5 3 0 2
BITMAP
20
50
F8
ENDCHAR
STARTCHAR U+25B4
ENCODING 9652
SWIDTH 363 0
DWIDTH 4 0
BBX 3 2 0 2
BITMAP
40
E0
ENDCHAR
STARTCHAR U+25B5
ENCODING 9653
SWIDTH 363 0
DWIDTH 4 0
BBX 3 2 0 2
BITMAP
40
A0
ENDCHAR
STARTCHAR U+25B6
ENCODING 9654
SWIDTH 363 0
DWIDTH 4 0
BBX 3 5 0 0
BITMAP
80
C0
E0
C0
80
ENDCHAR
STARTCHAR U+25B7
ENCODING 9655
SWIDTH 363 0
DWIDTH 4 0
BBX 3 5 0 0
BITMAP
80
C0
A0
C0
80
ENDCHAR
STARTCHAR U+25B8
ENCODING 9656
SWIDTH 272 0
DWIDTH 3 0
BBX 2 3 0 1
BITMAP
80
C0
80
ENDCHAR
STARTCHAR U+25B9
ENCODING 9657
SWIDTH 272 0
DWIDTH 3 0
BBX 2 3 0 1
BITMAP
80
40
80
ENDCHAR
STARTCHAR U+25BA
ENCODING 9658
SWIDTH 545 0
DWIDTH 6 0
BBX 5 5 0 0
BITMAP
80
E0
F8
E0
80
ENDCHAR
STARTCHAR U+25BB
ENCODING 9659
SWIDTH 545 0
DWIDTH 6 0
BBX 5 5 0 0
BITMAP
80
E0
98
E0
80
ENDCHAR
STARTCHAR U+25BC
ENCODING 9660
SWIDTH 545 0
DWIDTH 6 0
BBX 5 3 0 1
BITMAP
F8
70
20
ENDCHAR
STARTCHAR U+25BD
ENCODING 9661
SWIDTH 545 0
DWIDTH 6 0
BBX 5 3 0 1
BITMAP
F8
50
20
ENDCHAR
STARTCHAR U+25BE
ENCODING 9662
SWIDTH 363 0
DWIDTH 4 0
BBX 3 2 0 2
BITMAP
E0
40
ENDCHAR
STARTCHAR U+25BF
ENCODING 9663
SWIDTH 363 0
DWIDTH 4 0
BBX 3 2 0 2
BITMAP
A0
40
ENDCHAR
STARTCHAR U+25C0
ENCODING 9664
SWIDTH 363 0
DWIDTH 4 0
BBX 3 5 0 0
BITMAP
20
60
E0
60
20
ENDCHAR
STARTCHAR U+25C1
ENCODING 9665
SWIDTH 363 0
DWIDTH 4 0
BBX 3 5 0 0
BITMAP
20
60
A0
60
20
ENDCHAR
STARTCHAR U+25C2
ENCODING 9666
SWIDTH 272 0
DWIDTH 3 0
BBX 2 3 0 1
BITMAP
40
C0
40
ENDCHAR
STARTCHAR U+25C3
ENCODING 9667
SWIDTH 272 0
DWIDTH 3 0
BBX 2 3 0 1
BITMAP
40
80
40
ENDCHAR
STARTCHAR U+25C4
ENCODING 9668
SWIDTH 545 0
DWIDTH 6 0
BBX 5 5 0 0
BITMAP
08
38
F8
38
08
ENDCHAR
STARTCHAR U+25C5
ENCODING 9669
SWIDTH 545 0
DWIDTH 6 0
BBX 5 5 0 0
BITMAP
08
38
C8
38
08
ENDCHAR
STARTCHAR U+25C6
ENCODING 9670
SWIDTH 545 0
DWIDTH 6 0
BBX 5 5 0 0
BITMAP
20
70
F8
70
20
ENDCHAR
STARTCHAR U+25C7
ENCODING 9671
SWIDTH 545 0
DWIDTH 6 0
BBX 5 5 0 0
BITMAP
20
50
88
50
20
ENDCHAR
STARTCHAR U+25CA
ENCODING 9674
SWIDTH 545 0
DWIDTH 6 0
BBX 5 5 0 0
BITMAP
20
50
88
50
20
ENDCHAR
STARTCHAR U+25CB
ENCODING 9675
SWIDTH 454 0
DWIDTH 5 0
BBX 4 4 0 1
BITMAP
60
90
90
60
ENDCHAR
STARTCHAR U+25CF
ENCODING 9679
SWIDTH 454 0
DWIDTH 5 0
BBX 4 4 0 1
BITMAP
60
F0
F0
60
ENDCHAR
STARTCHAR U+25E6
ENCODING 9702
SWIDTH 272 0
DWIDTH 3 0
BBX 2 2 0 2
BITMAP
C0
C0
ENDCHAR
STARTCHAR U+27E8
ENCODING 10216
SWIDTH 272 0
DWIDTH 3 0
BBX 2 5 0 0
BITMAP
40
40
80
40
40
ENDCHAR
STARTCHAR U+27E9
ENCODING 10217
SWIDTH 272 0
DWIDTH 3 0
BBX 2 5 0 0
BITMAP
80
80
40
80
80
ENDCHAR
ENDFONT
